<?xml version="1.0" encoding="UTF-8"?>
<!DOCTYPE svg PUBLIC "-//W3C//DTD SVG 1.1//EN" "http://www.w3.org/Graphics/SVG/1.1/DTD/svg11.dtd">
<svg xmlns="http://www.w3.org/2000/svg" version="1.1" width="300px" height="300px" style="shape-rendering:geometricPrecision; text-rendering:geometricPrecision; image-rendering:optimizeQuality; fill-rule:evenodd; clip-rule:evenodd" xmlns:xlink="http://www.w3.org/1999/xlink">
<g><path style="opacity:1" fill="#fd4e24" d="M -0.5,-0.5 C 99.5,-0.5 199.5,-0.5 299.5,-0.5C 299.5,99.5 299.5,199.5 299.5,299.5C 199.5,299.5 99.5,299.5 -0.5,299.5C -0.5,199.5 -0.5,99.5 -0.5,-0.5 Z"/></g>
<g><path style="opacity:1" fill="#f0eceb" d="M 206.5,74.5 C 206.83,92.3412 206.497,110.008 205.5,127.5C 202.383,119.754 199.549,111.754 197,103.5C 193.065,93.9433 185.898,88.9433 175.5,88.5C 175.5,87.5 175.5,86.5 175.5,85.5C 172.482,85.3354 169.482,85.502 166.5,86C 165.833,86.6667 165.167,87.3333 164.5,88C 154.5,88.6667 144.5,88.6667 134.5,88C 133.833,87.3333 133.167,86.6667 132.5,86C 129.518,85.502 126.518,85.3354 123.5,85.5C 123.5,86.5 123.5,87.5 123.5,88.5C 116.887,88.1583 111.554,90.4916 107.5,95.5C 105.178,96.8021 103.845,98.8021 103.5,101.5C 100.434,110.2 97.4343,118.866 94.5,127.5C 93.7784,127.918 93.2784,128.584 93,129.5C 92.1925,110.79 92.3592,92.1231 93.5,73.5C 94.9894,69.8467 97.6561,67.3467 101.5,66C 132.833,65.3333 164.167,65.3333 195.5,66C 200.467,67.1318 204.134,69.9651 206.5,74.5 Z"/></g>
<g><path style="opacity:1" fill="#f16f5d" d="M 93.5,73.5 C 92.3592,92.1231 92.1925,110.79 93,129.5C 93.2784,128.584 93.7784,127.918 94.5,127.5C 94.8719,130.022 94.0386,132.022 92,133.5C 91.3333,113.833 91.3333,94.1667 92,74.5C 92.3826,73.944 92.8826,73.6107 93.5,73.5 Z"/></g>
<g><path style="opacity:1" fill="#ebad9d" d="M 206.5,74.5 C 207.662,93.3289 207.829,112.329 207,131.5C 206.209,130.255 205.709,128.922 205.5,127.5C 206.497,110.008 206.83,92.3412 206.5,74.5 Z"/></g>
<g><path style="opacity:1" fill="#f2e8e6" d="M 159.5,101.5 C 153.582,102.621 147.582,102.788 141.5,102C 140.556,99.2809 140.223,96.4475 140.5,93.5C 145.985,92.3483 151.651,92.1816 157.5,93C 159.321,95.456 159.988,98.2893 159.5,101.5 Z"/></g>
<g><path style="opacity:1" fill="#f18c6b" d="M 107.5,95.5 C 106.66,97.8525 105.326,99.8525 103.5,101.5C 103.845,98.8021 105.178,96.8021 107.5,95.5 Z"/></g>
<g><path style="opacity:1" fill="#f9e2dd" d="M 175.5,108.5 C 174.314,106.126 174.314,103.792 175.5,101.5C 181.045,99.7103 183.045,101.71 181.5,107.5C 179.591,108.348 177.591,108.682 175.5,108.5 Z"/></g>
<g><path style="opacity:1" fill="#efbfb1" d="M 140.5,93.5 C 140.223,96.4475 140.556,99.2809 141.5,102C 147.582,102.788 153.582,102.621 159.5,101.5C 153.25,103.459 146.584,104.126 139.5,103.5C 139.187,99.9581 139.521,96.6248 140.5,93.5 Z"/></g>
<g><path style="opacity:1" fill="#f2dacc" d="M 117.5,103.5 C 127.082,102.679 131.249,107.013 130,116.5C 123.584,124.568 117.584,124.235 112,115.5C 111.333,113.167 111.333,110.833 112,108.5C 113.73,106.598 115.563,104.931 117.5,103.5 Z"/></g>
<g><path style="opacity:1" fill="#f65b3e" d="M 123.5,109.5 C 122.292,110.234 120.959,110.567 119.5,110.5C 118.962,108.883 118.629,107.216 118.5,105.5C 120.167,105.5 121.833,105.5 123.5,105.5C 123.5,106.833 123.5,108.167 123.5,109.5 Z"/></g>
<g><path style="opacity:1" fill="#fdd5c3" d="M 183.5,115.5 C 185.167,115.5 186.833,115.5 188.5,115.5C 188.817,111.828 187.151,110.162 183.5,110.5C 183.791,109.351 184.624,108.684 186,108.5C 190.332,109.444 191.499,111.944 189.5,116C 187.288,116.789 185.288,116.622 183.5,115.5 Z"/></g>
<g><path style="opacity:1" fill="#f4563c" d="M 119.5,111.5 C 118.952,114.084 117.285,115.084 114.5,114.5C 113.566,113.432 113.232,112.099 113.5,110.5C 115.621,110.325 117.621,110.659 119.5,111.5 Z"/></g>
<g><path style="opacity:1" fill="#f44b2c" d="M 125.5,110.5 C 127.912,110.694 128.912,112.027 128.5,114.5C 127.167,114.5 125.833,114.5 124.5,114.5C 123.174,112.805 123.507,111.472 125.5,110.5 Z"/></g>
<g><path style="opacity:1" fill="#efe9e8" d="M 171.5,108.5 C 175.182,113.815 173.848,116.481 167.5,116.5C 165.307,111.837 166.64,109.17 171.5,108.5 Z"/></g>
<g><path style="opacity:1" fill="#edf0f0" d="M 183.5,110.5 C 187.151,110.162 188.817,111.828 188.5,115.5C 186.833,115.5 185.167,115.5 183.5,115.5C 182.28,113.716 182.28,112.05 183.5,110.5 Z"/></g>
<g><path style="opacity:1" fill="#f4b19d" d="M 123.5,109.5 C 123.842,110.338 124.508,110.672 125.5,110.5C 123.507,111.472 123.174,112.805 124.5,114.5C 123.833,114.5 123.5,114.833 123.5,115.5C 122.167,115.5 120.833,115.5 119.5,115.5C 119.5,116.833 119.5,118.167 119.5,119.5C 118.566,118.432 118.232,117.099 118.5,115.5C 116.901,115.768 115.568,115.434 114.5,114.5C 117.285,115.084 118.952,114.084 119.5,111.5C 119.5,111.167 119.5,110.833 119.5,110.5C 120.959,110.567 122.292,110.234 123.5,109.5 Z"/></g>
<g><path style="opacity:1" fill="#f5512e" d="M 123.5,115.5 C 123.762,116.978 123.429,118.311 122.5,119.5C 121.313,120.653 120.313,120.653 119.5,119.5C 119.5,118.167 119.5,116.833 119.5,115.5C 120.833,115.5 122.167,115.5 123.5,115.5 Z"/></g>
<g><path style="opacity:1" fill="#f77350" d="M 175.5,101.5 C 174.314,103.792 174.314,106.126 175.5,108.5C 174.527,110.948 174.194,113.615 174.5,116.5C 176.735,116.205 178.735,116.539 180.5,117.5C 175.302,117.081 173.635,119.248 175.5,124C 177.598,124.678 179.598,124.511 181.5,123.5C 179.504,124.913 177.337,126.246 175,127.5C 173.801,124.274 173.301,120.941 173.5,117.5C 171.265,117.795 169.265,117.461 167.5,116.5C 173.848,116.481 175.182,113.815 171.5,108.5C 172.66,105.967 173.993,103.633 175.5,101.5 Z"/></g>
<g><path style="opacity:1" fill="#efe9df" d="M 180.5,117.5 C 181.947,118.134 182.613,119.301 182.5,121C 182.472,122.07 182.139,122.903 181.5,123.5C 179.598,124.511 177.598,124.678 175.5,124C 173.635,119.248 175.302,117.081 180.5,117.5 Z"/></g>
<g><path style="opacity:1" fill="#efe6e1" d="M 154.5,127.5 C 161.818,128.314 163.152,131.481 158.5,137C 156.299,137.825 154.466,137.325 153,135.5C 152.282,132.593 152.782,129.926 154.5,127.5 Z"/></g>
<g><path style="opacity:1" fill="#f4e3dc" d="M 139.5,127.5 C 145.656,127.325 148.323,130.325 147.5,136.5C 138.783,138.515 136.116,135.515 139.5,127.5 Z"/></g>
<g><path style="opacity:1" fill="#f0eeee" d="M 185.5,156.5 C 185.611,157.117 185.944,157.617 186.5,158C 190.027,158.808 193.36,158.641 196.5,157.5C 197.791,157.737 198.791,157.404 199.5,156.5C 200.931,156.881 201.764,157.881 202,159.5C 202.098,157.381 202.931,155.714 204.5,154.5C 205.662,159.467 205.829,164.467 205,169.5C 203.357,171.872 201.857,174.206 200.5,176.5C 198.998,177.083 197.665,177.916 196.5,179C 165.502,179.5 134.502,179.667 103.5,179.5C 101.784,179.371 100.117,179.038 98.5,178.5C 95.2601,176.361 93.2601,173.361 92.5,169.5C 91.88,163.074 92.5467,157.074 94.5,151.5C 95.1001,152.9 96.1001,153.9 97.5,154.5C 98.343,156.173 99.6763,157.34 101.5,158C 105.027,158.808 108.36,158.641 111.5,157.5C 114.447,156.356 117.113,154.689 119.5,152.5C 123.201,147.969 126.701,143.302 130,138.5C 130.483,137.552 130.649,136.552 130.5,135.5C 133.114,135.277 134.781,136.444 135.5,139C 139.903,141.026 144.57,141.86 149.5,141.5C 156.486,142.895 162.152,140.895 166.5,135.5C 171.246,141.331 175.746,147.331 180,153.5C 181.488,155.16 183.321,156.16 185.5,156.5 Z"/></g>
<g><path style="opacity:1" fill="#fa8474" d="M 97.5,154.5 C 101.783,156.958 106.449,157.958 111.5,157.5C 108.36,158.641 105.027,158.808 101.5,158C 99.6763,157.34 98.343,156.173 97.5,154.5 Z"/></g>
<g><path style="opacity:1" fill="#ee907d" d="M 185.5,156.5 C 189.099,157.344 192.766,157.677 196.5,157.5C 193.36,158.641 190.027,158.808 186.5,158C 185.944,157.617 185.611,157.117 185.5,156.5 Z"/></g>
<g><path style="opacity:1" fill="#f27661" d="M 94.5,151.5 C 92.5467,157.074 91.88,163.074 92.5,169.5C 91.1812,162.656 91.1812,155.656 92.5,148.5C 93.9185,149.005 94.5852,150.005 94.5,151.5 Z"/></g>
<g><path style="opacity:1" fill="#fbebdb" d="M 197.5,180.5 C 165.996,180.832 134.662,180.498 103.5,179.5C 134.502,179.667 165.502,179.5 196.5,179C 197.665,177.916 198.998,177.083 200.5,176.5C 201.857,174.206 203.357,171.872 205,169.5C 205.829,164.467 205.662,159.467 204.5,154.5C 202.931,155.714 202.098,157.381 202,159.5C 201.764,157.881 200.931,156.881 199.5,156.5C 202.104,154.4 204.604,152.067 207,149.5C 207.667,156.5 207.667,163.5 207,170.5C 205.02,174.98 201.853,178.313 197.5,180.5 Z"/></g>
<g><path style="opacity:1" fill="#f37869" d="M 98.5,178.5 C 100.117,179.038 101.784,179.371 103.5,179.5C 134.662,180.498 165.996,180.832 197.5,180.5C 166.003,181.664 134.336,181.831 102.5,181C 100.68,180.8 99.347,179.966 98.5,178.5 Z"/></g>
<g><path style="opacity:1" fill="#642d1d" d="M 79.5,195.5 C 83.97,194.514 88.6367,194.181 93.5,194.5C 93.5674,195.959 93.2341,197.292 92.5,198.5C 89.5,198.5 86.5,198.5 83.5,198.5C 86.0277,197.834 88.6944,197.168 91.5,196.5C 87.5546,195.509 83.5546,195.176 79.5,195.5 Z"/></g>
<g><path style="opacity:1" fill="#643128" d="M 215.5,196.5 C 211.901,195.656 208.234,195.323 204.5,195.5C 208.565,192.587 212.232,192.921 215.5,196.5 Z"/></g>
<g><path style="opacity:1" fill="#6c3724" d="M 151.5,195.5 C 146.317,194.535 141.984,195.868 138.5,199.5C 139.924,195.36 142.924,193.36 147.5,193.5C 149.171,193.668 150.504,194.335 151.5,195.5 Z"/></g>
<g><path style="opacity:1" fill="#302a26" d="M 63.5,194.5 C 67.8333,194.5 72.1667,194.5 76.5,194.5C 76.7373,195.791 76.404,196.791 75.5,197.5C 73.5,197.5 71.5,197.5 69.5,197.5C 69.5,202.833 69.5,208.167 69.5,213.5C 68.5,213.5 67.5,213.5 66.5,213.5C 66.8205,208.305 66.4872,203.305 65.5,198.5C 63.9581,197.837 62.2914,197.17 60.5,196.5C 61.6016,195.824 62.6016,195.158 63.5,194.5 Z"/></g>
<g><path style="opacity:1" fill="#412d29" d="M 97.5,209.5 C 96.7347,206.904 96.4013,204.237 96.5,201.5C 96.8399,198.325 98.5066,196.159 101.5,195C 104.5,194.333 107.5,194.333 110.5,195C 112.037,196.11 112.703,197.61 112.5,199.5C 110.09,198.611 107.59,197.945 105,197.5C 103.833,197.833 102.667,198.167 101.5,198.5C 100.329,202.482 100.329,206.482 101.5,210.5C 105.106,210.789 108.606,210.456 112,209.5C 112.684,210.784 112.517,211.951 111.5,213C 105.64,215.914 100.974,214.748 97.5,209.5 Z"/></g>
<g><path style="opacity:1" fill="#5e200d" d="M 195.5,195.5 C 193.972,196.802 192.972,198.469 192.5,200.5C 192.5,198.5 192.5,196.5 192.5,194.5C 193.791,194.263 194.791,194.596 195.5,195.5 Z"/></g>
<g><path style="opacity:1" fill="#803420" d="M 63.5,194.5 C 62.6016,195.158 61.6016,195.824 60.5,196.5C 62.2914,197.17 63.9581,197.837 65.5,198.5C 63.5,198.5 61.5,198.5 59.5,198.5C 59.5,197.167 59.5,195.833 59.5,194.5C 60.8333,194.5 62.1667,194.5 63.5,194.5 Z"/></g>
<g><path style="opacity:1" fill="#983e29" d="M 75.5,197.5 C 74.1225,198.234 72.6225,198.901 71,199.5C 70.8255,204.351 70.3255,209.018 69.5,213.5C 69.5,208.167 69.5,202.833 69.5,197.5C 71.5,197.5 73.5,197.5 75.5,197.5 Z"/></g>
<g><path style="opacity:1" fill="#853b20" d="M 123.5,199.5 C 121.852,198.19 120.186,196.857 118.5,195.5C 117.504,201.463 117.171,207.463 117.5,213.5C 118.5,213.5 119.5,213.5 120.5,213.5C 119.432,214.434 118.099,214.768 116.5,214.5C 116.5,207.833 116.5,201.167 116.5,194.5C 120.237,194.241 122.57,195.907 123.5,199.5 Z"/></g>
<g><path style="opacity:1" fill="#332a27" d="M 123.5,199.5 C 124.803,201.142 126.136,202.809 127.5,204.5C 127.75,205.922 128.583,206.922 130,207.5C 130.499,203.514 130.666,199.514 130.5,195.5C 131.5,195.5 132.5,195.5 133.5,195.5C 133.5,201.5 133.5,207.5 133.5,213.5C 132.5,213.5 131.5,213.5 130.5,213.5C 128.806,212.473 127.473,211.139 126.5,209.5C 125.283,206.603 123.616,203.936 121.5,201.5C 120.509,205.445 120.176,209.445 120.5,213.5C 119.5,213.5 118.5,213.5 117.5,213.5C 117.171,207.463 117.504,201.463 118.5,195.5C 120.186,196.857 121.852,198.19 123.5,199.5 Z"/></g>
<g><path style="opacity:1" fill="#322c27" d="M 151.5,195.5 C 156.972,197.529 158.972,201.529 157.5,207.5C 155.833,209.833 153.833,211.833 151.5,213.5C 143.424,215.471 138.757,212.138 137.5,203.5C 137.511,201.955 137.844,200.622 138.5,199.5C 141.984,195.868 146.317,194.535 151.5,195.5 Z"/></g>
<g><path style="opacity:1" fill="#f44d27" d="M 144.5,197.5 C 154.385,197.78 156.718,201.946 151.5,210C 144.982,212.32 141.649,210.154 141.5,203.5C 141.617,200.95 142.617,198.95 144.5,197.5 Z"/></g>
<g><path style="opacity:1" fill="#e74e2b" d="M 83.5,198.5 C 86.5,198.5 89.5,198.5 92.5,198.5C 92.1961,199.15 91.8627,199.817 91.5,200.5C 93.0453,201.452 94.712,201.785 96.5,201.5C 96.4013,204.237 96.7347,206.904 97.5,209.5C 94.9342,207.855 92.2675,207.522 89.5,208.5C 91.3316,209.057 92.6649,210.057 93.5,211.5C 93.1667,211.5 92.8333,211.5 92.5,211.5C 89.3752,210.521 86.0419,210.187 82.5,210.5C 82.2322,208.901 82.5655,207.568 83.5,206.5C 86.1873,206.664 88.854,206.497 91.5,206C 92.8333,205 92.8333,204 91.5,203C 88.854,202.503 86.1873,202.336 83.5,202.5C 82.1667,201.167 82.1667,199.833 83.5,198.5 Z"/></g>
<g><path style="opacity:1" fill="#f64f26" d="M 174.5,198.5 C 175.451,199.919 175.784,201.585 175.5,203.5C 172.873,202.908 170.206,202.575 167.5,202.5C 166.032,201.221 165.365,199.554 165.5,197.5C 168.545,197.508 171.545,197.841 174.5,198.5 Z"/></g>
<g><path style="opacity:1" fill="#703b24" d="M 204.5,195.5 C 202.829,197.637 201.162,199.637 199.5,201.5C 199.772,198.268 201.438,196.268 204.5,195.5 Z"/></g>
<g><path style="opacity:1" fill="#a54127" d="M 130.5,213.5 C 131.5,213.5 132.5,213.5 133.5,213.5C 133.5,207.5 133.5,201.5 133.5,195.5C 132.5,195.5 131.5,195.5 130.5,195.5C 130.666,199.514 130.499,203.514 130,207.5C 128.583,206.922 127.75,205.922 127.5,204.5C 129.25,201.645 130.083,198.311 130,194.5C 131.333,193.167 132.667,193.167 134,194.5C 134.5,201.158 134.666,207.825 134.5,214.5C 132.901,214.768 131.568,214.434 130.5,213.5 Z"/></g>
<g><path style="opacity:1" fill="#432d27" d="M 175.5,196.5 C 175.167,197.167 174.833,197.833 174.5,198.5C 171.545,197.841 168.545,197.508 165.5,197.5C 165.365,199.554 166.032,201.221 167.5,202.5C 169.905,203.768 172.572,204.435 175.5,204.5C 175.71,207.752 175.044,210.752 173.5,213.5C 170.36,214.641 167.027,214.808 163.5,214C 161.893,212.951 161.227,211.451 161.5,209.5C 164.587,211.017 167.921,211.684 171.5,211.5C 171.714,209.856 171.38,208.356 170.5,207C 163.85,206.367 161.016,202.867 162,196.5C 166.472,192.571 170.972,192.571 175.5,196.5 Z"/></g>
<g><path style="opacity:1" fill="#6e2c1c" d="M 83.5,202.5 C 86.1873,202.336 88.854,202.503 91.5,203C 92.8333,204 92.8333,205 91.5,206C 88.854,206.497 86.1873,206.664 83.5,206.5C 85.6979,205.835 88.0312,205.168 90.5,204.5C 88.0312,203.832 85.6979,203.165 83.5,202.5 Z"/></g>
<g><path style="opacity:1" fill="#cc442f" d="M 175.5,196.5 C 176.815,201.68 176.815,207.014 175.5,212.5C 174.817,212.863 174.15,213.196 173.5,213.5C 175.044,210.752 175.71,207.752 175.5,204.5C 172.572,204.435 169.905,203.768 167.5,202.5C 170.206,202.575 172.873,202.908 175.5,203.5C 175.784,201.585 175.451,199.919 174.5,198.5C 174.833,197.833 175.167,197.167 175.5,196.5 Z"/></g>
<g><path style="opacity:1" fill="#46341b" d="M 191.5,202.5 C 188.972,203.166 186.306,203.832 183.5,204.5C 186.306,205.168 188.972,205.834 191.5,206.5C 188.833,206.5 186.167,206.5 183.5,206.5C 183.5,208.833 183.5,211.167 183.5,213.5C 182.167,213.5 180.833,213.5 179.5,213.5C 179.5,207.167 179.5,200.833 179.5,194.5C 180.833,194.5 182.167,194.5 183.5,194.5C 183.5,197.167 183.5,199.833 183.5,202.5C 186.167,202.5 188.833,202.5 191.5,202.5 Z"/></g>
<g><path style="opacity:1" fill="#2d2832" d="M 180.5,196.5 C 181.805,198.397 182.471,200.731 182.5,203.5C 182.565,206.625 182.065,209.625 181,212.5C 180.501,207.177 180.334,201.844 180.5,196.5 Z"/></g>
<g><path style="opacity:1" fill="#2b2d2c" d="M 79.5,195.5 C 83.5546,195.176 87.5546,195.509 91.5,196.5C 88.6944,197.168 86.0277,197.834 83.5,198.5C 82.1667,199.833 82.1667,201.167 83.5,202.5C 85.6979,203.165 88.0312,203.832 90.5,204.5C 88.0312,205.168 85.6979,205.835 83.5,206.5C 82.5655,207.568 82.2322,208.901 82.5,210.5C 86.0419,210.187 89.3752,210.521 92.5,211.5C 88.6273,213.43 84.294,214.097 79.5,213.5C 79.5,207.5 79.5,201.5 79.5,195.5 Z"/></g>
<g><path style="opacity:1" fill="#6b3a2a" d="M 223.5,196.5 C 224.167,201.681 224.833,207.015 225.5,212.5C 226.176,211.398 226.842,210.398 227.5,209.5C 227.5,210.833 227.5,212.167 227.5,213.5C 226.432,214.434 225.099,214.768 223.5,214.5C 223.5,208.5 223.5,202.5 223.5,196.5 Z"/></g>
<g><path style="opacity:1" fill="#362d25" d="M 235.5,207.5 C 232.67,207.963 230.003,208.629 227.5,209.5C 226.842,210.398 226.176,211.398 225.5,212.5C 224.833,207.015 224.167,201.681 223.5,196.5C 224.694,195.223 226.36,194.556 228.5,194.5C 232.397,194.347 235.897,195.347 239,197.5C 240.419,201.953 239.252,205.286 235.5,207.5 Z"/></g>
<g><path style="opacity:1" fill="#e14c2a" d="M 227.5,197.5 C 234.349,195.743 236.682,198.076 234.5,204.5C 232.257,205.474 229.924,205.808 227.5,205.5C 227.5,202.833 227.5,200.167 227.5,197.5 Z"/></g>
<g><path style="opacity:1" fill="#2f2b2f" d="M 195.5,195.5 C 195.829,201.206 195.495,206.872 194.5,212.5C 193.83,210.709 193.163,209.042 192.5,207.5C 191.833,207.5 191.5,207.167 191.5,206.5C 188.972,205.834 186.306,205.168 183.5,204.5C 186.306,203.832 188.972,203.166 191.5,202.5C 191.833,201.833 192.167,201.167 192.5,200.5C 192.972,198.469 193.972,196.802 195.5,195.5 Z"/></g>
<g><path style="opacity:1" fill="#692f1b" d="M 195.5,195.5 C 196.49,201.31 196.823,207.31 196.5,213.5C 195.167,213.5 193.833,213.5 192.5,213.5C 192.5,211.5 192.5,209.5 192.5,207.5C 193.163,209.042 193.83,210.709 194.5,212.5C 195.495,206.872 195.829,201.206 195.5,195.5 Z"/></g>
<g><path style="opacity:1" fill="#ca4837" d="M 126.5,209.5 C 124.926,209.063 123.759,208.063 123,206.5C 121.957,208.833 121.124,211.166 120.5,213.5C 120.176,209.445 120.509,205.445 121.5,201.5C 123.616,203.936 125.283,206.603 126.5,209.5 Z"/></g>
<g><path style="opacity:1" fill="#362c29" d="M 204.5,195.5 C 208.234,195.323 211.901,195.656 215.5,196.5C 218.634,198.072 220.3,200.738 220.5,204.5C 220.781,209.551 218.448,212.551 213.5,213.5C 204.241,214.91 199.574,210.91 199.5,201.5C 201.162,199.637 202.829,197.637 204.5,195.5 Z"/></g>
<g><path style="opacity:1" fill="#f24d28" d="M 205.5,197.5 C 214.191,196.518 217.524,200.184 215.5,208.5C 203.942,212.605 200.609,208.939 205.5,197.5 Z"/></g>
<g><path style="opacity:1" fill="#8e4229" d="M 157.5,207.5 C 157.167,211.167 155.167,213.167 151.5,213.5C 153.833,211.833 155.833,209.833 157.5,207.5 Z"/></g>
<g><path style="opacity:1" fill="#c75139" d="M 235.5,207.5 C 233.721,209.344 231.388,210.01 228.5,209.5C 228.768,211.099 228.434,212.432 227.5,213.5C 227.5,212.167 227.5,210.833 227.5,209.5C 230.003,208.629 232.67,207.963 235.5,207.5 Z"/></g>
<g><path style="opacity:1" fill="#772b16" d="M 92.5,211.5 C 92.8333,211.5 93.1667,211.5 93.5,211.5C 93.5,212.5 93.5,213.5 93.5,214.5C 88.6367,214.819 83.97,214.486 79.5,213.5C 84.294,214.097 88.6273,213.43 92.5,211.5 Z"/></g>
<g><path style="opacity:1" fill="#7e3f23" d="M 115.5,224.5 C 117.5,224.5 119.5,224.5 121.5,224.5C 121.719,225.675 121.386,226.675 120.5,227.5C 118.241,227.216 116.574,226.216 115.5,224.5 Z"/></g>
<g><path style="opacity:1" fill="#8e3b20" d="M 175.5,229.5 C 174.167,229.5 172.833,229.5 171.5,229.5C 171.5,228.167 171.5,226.833 171.5,225.5C 176.101,225.629 180.768,225.462 185.5,225C 185.827,227.685 185.827,230.518 185.5,233.5C 184.5,233.5 183.5,233.5 182.5,233.5C 183.127,226.641 180.127,224.641 173.5,227.5C 174.243,228.182 174.909,228.849 175.5,229.5 Z"/></g>
<g><path style="opacity:1" fill="#753e1c" d="M 44.5,225.5 C 46.924,225.192 49.2573,225.526 51.5,226.5C 49.9547,227.452 48.288,227.785 46.5,227.5C 46.762,228.978 46.4287,230.311 45.5,231.5C 44.5344,229.604 44.2011,227.604 44.5,225.5 Z"/></g>
<g><path style="opacity:1" fill="#743a23" d="M 135.5,225.5 C 136.461,227.265 136.795,229.265 136.5,231.5C 137.833,231.5 139.167,231.5 140.5,231.5C 140.5,230.167 140.5,228.833 140.5,227.5C 139.325,227.719 138.325,227.386 137.5,226.5C 141.615,224.868 143.448,226.201 143,230.5C 141.152,233.041 138.652,234.041 135.5,233.5C 135.5,230.833 135.5,228.167 135.5,225.5 Z"/></g>
<g><path style="opacity:1" fill="#7f3b15" d="M 196.5,224.5 C 203.576,224.857 203.909,225.857 197.5,227.5C 201.11,229.712 200.443,230.712 195.5,230.5C 195.325,228.379 195.659,226.379 196.5,224.5 Z"/></g>
<g><path style="opacity:1" fill="#7d3925" d="M 67.5,224.5 C 72.1103,224.596 72.4436,225.596 68.5,227.5C 69.6888,228.429 71.0222,228.762 72.5,228.5C 72.4418,232.788 70.4418,234.121 66.5,232.5C 67.7287,231.719 69.062,231.219 70.5,231C 65.7171,230.138 64.7171,227.972 67.5,224.5 Z"/></g>
<g><path style="opacity:1" fill="#6e361b" d="M 85.5,225.5 C 87.924,225.192 90.2573,225.526 92.5,226.5C 93.8774,230.959 92.2107,232.793 87.5,232C 88.448,231.517 89.448,231.351 90.5,231.5C 89.3061,224.902 87.6394,224.902 85.5,231.5C 84.3058,229.484 84.3058,227.484 85.5,225.5 Z"/></g>
<g><path style="opacity:1" fill="#8e3826" d="M 207.5,231.5 C 203.499,229.575 203.499,227.409 207.5,225C 210.308,224.08 212.475,224.913 214,227.5C 214.547,231.113 212.881,233.113 209,233.5C 207.97,233.164 207.47,232.497 207.5,231.5 Z"/></g>
<g><path style="opacity:1" fill="#733d1c" d="M 237.5,225.5 C 238.629,227.666 238.129,229.666 236,231.5C 233.945,230.328 233.278,228.661 234,226.5C 235.579,227.8 236.745,227.466 237.5,225.5 Z"/></g>
<g><path style="opacity:1" fill="#653e1e" d="M 60.5,231.5 C 60.2011,229.396 60.5344,227.396 61.5,225.5C 61.8333,226.5 62.1667,227.5 62.5,228.5C 62.3601,230.03 61.6935,231.03 60.5,231.5 Z"/></g>
<g><path style="opacity:1" fill="#843a25" d="M 77.5,224.5 C 78.8333,224.5 80.1667,224.5 81.5,224.5C 80.5148,227.456 79.5148,230.456 78.5,233.5C 77.5159,230.572 77.1826,227.572 77.5,224.5 Z"/></g>
<g><path style="opacity:1" fill="#6c352a" d="M 109.5,225.5 C 110.725,226.152 111.392,227.319 111.5,229C 111.333,230.167 111.167,231.333 111,232.5C 109.648,230.406 109.148,228.073 109.5,225.5 Z"/></g>
<g><path style="opacity:1" fill="#653f1a" d="M 154.5,225.5 C 156.344,227.279 157.01,229.612 156.5,232.5C 154.801,232.66 153.134,232.494 151.5,232C 152.448,231.517 153.448,231.351 154.5,231.5C 154.5,229.5 154.5,227.5 154.5,225.5 Z"/></g>
<g><path style="opacity:1" fill="#863929" d="M 60.5,231.5 C 59.4479,233.256 57.7812,233.923 55.5,233.5C 55.1866,230.753 55.52,228.086 56.5,225.5C 57.4656,227.396 57.7989,229.396 57.5,231.5C 58.5,231.5 59.5,231.5 60.5,231.5 Z"/></g>
<g><path style="opacity:1" fill="#6f3b27" d="M 125.5,224.5 C 132.885,224.732 133.552,225.732 127.5,227.5C 128.376,228.251 129.376,228.751 130.5,229C 126.735,230.377 127.068,231.377 131.5,232C 129.655,233.128 127.655,233.628 125.5,233.5C 125.5,230.5 125.5,227.5 125.5,224.5 Z"/></g>
<g><path style="opacity:1" fill="#7a3620" d="M 160.5,225.5 C 162.308,226.918 162.975,228.918 162.5,231.5C 163.5,231.5 164.5,231.5 165.5,231.5C 165.201,229.396 165.534,227.396 166.5,225.5C 167.833,227.833 167.833,230.167 166.5,232.5C 164.356,233.953 162.523,233.62 161,231.5C 160.505,229.527 160.338,227.527 160.5,225.5 Z"/></g>
<g><path style="opacity:1" fill="#ec4f2a" d="M 207.5,231.5 C 206.227,228.099 207.56,226.766 211.5,227.5C 211.5,228.833 211.5,230.167 211.5,231.5C 210.167,231.5 208.833,231.5 207.5,231.5 Z"/></g>
<g><path style="opacity:1" fill="#753826" d="M 96.5,225.5 C 98.6237,226.031 100.124,227.365 101,229.5C 104.991,224.49 106.158,225.49 104.5,232.5C 103.808,231.975 103.308,231.308 103,230.5C 100.749,231.038 98.5825,231.205 96.5,231C 97.5361,229.224 97.5361,227.391 96.5,225.5 Z"/></g>
<g><path style="opacity:1" fill="#64391e" d="M 222.5,231.5 C 220.856,231.286 219.356,231.62 218,232.5C 217.517,231.552 217.351,230.552 217.5,229.5C 218.833,229.5 220.167,229.5 221.5,229.5C 221.5,228.5 221.5,227.5 221.5,226.5C 219.901,226.768 218.568,226.434 217.5,225.5C 223.22,223.565 224.887,225.565 222.5,231.5 Z"/></g>
<g><path style="opacity:1" fill="#6f372f" d="M 260.5,223.5 C 261.479,226.625 261.813,229.958 261.5,233.5C 254.821,233.831 252.821,230.831 255.5,224.5C 256.474,226.743 256.808,229.076 256.5,231.5C 257.5,231.5 258.5,231.5 259.5,231.5C 259.401,228.763 259.735,226.096 260.5,223.5 Z"/></g>
<g><path style="opacity:1" fill="#7a3720" d="M 242.5,225.5 C 245.167,225.5 247.833,225.5 250.5,225.5C 251.338,232.534 248.838,234.534 243,231.5C 242.505,229.527 242.338,227.527 242.5,225.5 Z"/></g>
<g><path style="opacity:1" fill="#f34d2f" d="M 244.5,227.5 C 245.833,227.5 247.167,227.5 248.5,227.5C 248.5,228.833 248.5,230.167 248.5,231.5C 247.167,231.5 245.833,231.5 244.5,231.5C 244.5,230.167 244.5,228.833 244.5,227.5 Z"/></g>
<g><path style="opacity:1" fill="#88442a" d="M 117.5,228.5 C 120.113,229.095 120.113,229.929 117.5,231C 118.938,231.219 120.271,231.719 121.5,232.5C 119.167,233.833 116.833,233.833 114.5,232.5C 115.172,230.84 116.172,229.507 117.5,228.5 Z"/></g>
<g><path style="opacity:1" fill="#843821" d="M 175.5,229.5 C 177.758,229.775 178.092,230.775 176.5,232.5C 174.693,233.799 173.027,233.632 171.5,232C 173.437,231.878 174.77,231.045 175.5,229.5 Z"/></g>
<g><path style="opacity:1" fill="#bd4828" d="M 217.5,225.5 C 218.568,226.434 219.901,226.768 221.5,226.5C 221.5,227.5 221.5,228.5 221.5,229.5C 220.167,229.5 218.833,229.5 217.5,229.5C 217.351,230.552 217.517,231.552 218,232.5C 219.356,231.62 220.856,231.286 222.5,231.5C 223.773,232.077 223.773,232.743 222.5,233.5C 220.584,232.752 218.584,232.752 216.5,233.5C 216.194,230.615 216.527,227.948 217.5,225.5 Z"/></g>
</svg>
